<svg xmlns="http://www.w3.org/2000/svg" viewBox="0 0 265.05 226.03"><defs><style>.cls-1{fill:#e94e1b;}.cls-2{fill:#fff;}</style></defs><g id="Layer_2" data-name="Layer 2"><g id="Layer_1-2" data-name="Layer 1"><ellipse class="cls-1" cx="64.05" cy="189.53" rx="38" ry="36.5"/><ellipse class="cls-1" cx="198.05" cy="189.53" rx="38" ry="36.5"/><path class="cls-1" d="M25.05,186h-12a14.14,14.14,0,0,1-10-5,13.79,13.79,0,0,1-3-8.9V15a14.16,14.16,0,0,1,3-10C7.5-.44,14.4,0,15.05,0h141a15.92,15.92,0,0,1,11,4c5.55,5,5.07,12.15,5,13V45h26l54,59v54h13v27h-29"/><line class="cls-1" x1="104.45" y1="186.03" x2="160.28" y2="186.03"/><circle class="cls-2" cx="64.55" cy="192.53" r="20"/><circle class="cls-2" cx="198.55" cy="189.53" r="20"/><polygon class="cls-2" points="169.55 60.53 169.55 106.43 226.84 106.43 191.09 60.53 169.55 60.53"/></g></g></svg>